<?xml version="1.0" encoding="UTF-8" standalone="no"?>
<svg
   width="512"
   height="512"
   fill="none"
   version="1.1"
   viewBox="0 0 41 41"
   id="svg24"
   sodipodi:docname="icon.svg"
   inkscape:version="1.1.2 (0a00cf5339, 2022-02-04)"
   xmlns:inkscape="http://www.inkscape.org/namespaces/inkscape"
   xmlns:sodipodi="http://sodipodi.sourceforge.net/DTD/sodipodi-0.dtd"
   xmlns="http://www.w3.org/2000/svg"
   xmlns:svg="http://www.w3.org/2000/svg">
  <defs
     id="defs28" />
  <sodipodi:namedview
     id="namedview26"
     pagecolor="#ffffff"
     bordercolor="#999999"
     borderopacity="1"
     inkscape:pageshadow="0"
     inkscape:pageopacity="0"
     inkscape:pagecheckerboard="0"
     showgrid="false"
     inkscape:zoom="0.84960938"
     inkscape:cx="167.72414"
     inkscape:cy="357.22299"
     inkscape:window-width="1868"
     inkscape:window-height="1016"
     inkscape:window-x="52"
     inkscape:window-y="27"
     inkscape:window-maximized="1"
     inkscape:current-layer="svg24" />
  <g
     id="g850"
     transform="matrix(0.843845,0,0,0.843845,0.2115003,-0.596125)">
    <path
       d="M 1,25.0219 C 1,38.3041 11.6959,49 24.7589,49 c 3.7699,0 7.2767,-0.8329 10.5644,-2.4548 0,0 0.1315,0 0,-0.1315 h -0.1315 c -2.4548,0.9205 -5.0411,1.5342 -7.8904,1.5342 -11.8356,0 -21.56715,-9.7753 -21.56715,-21.8739 0,-12.0987 9.73155,-22.00551 21.74245,-22.00551 8.4603,0 15.8685,4.95343 19.4192,12.09861 0,0 0,0.1315 0.1315,0 0.1315,0 0,-0.1315 0,-0.1315 C 43.5205,7.22466 34.9288,1 24.8027,1 11.6959,1 1,11.6959 1,25.0219 Z"
       fill="#783f34"
       id="path14-3" />
    <path
       d="m 24.2329,43.8274 c -0.5261,-0.0877 -1.0082,-0.1315 -1.4904,-0.3069 -1.7096,-0.6137 -3.4192,-1.2712 -5.085,-1.9287 -0.263,-0.0877 -0.3507,-0.263 -0.3507,-0.5699 0,-10.0383 0,-20.0767 0,-30.0712 0,-0.0877 0,-0.2192 0.0439,-0.3507 0.3068,0 0.5698,0 0.8329,0 1.8411,0 3.6383,0 5.4794,0 0.4822,0 0.6137,0.1753 0.6137,0.6137 0,3.8575 0,7.7589 0,11.6164 0,6.7069 0,13.4137 0,20.1644 0,0.2192 0,0.4384 -0.0438,0.8329 z M 23.7068,19.2795 c -0.8767,0 -1.7095,0 -2.5863,0 -0.7452,0 -0.7452,0 -0.7452,0.7452 0,0.7013 0,0.7013 0.7014,0.7013 0.263,0 0.526,0 0.7891,0 0.6137,0 1.2274,0 1.8849,0 -0.0439,-0.526 -0.0439,-0.9644 -0.0439,-1.4465 z m 0,6.6191 c -0.789,0 -1.578,0 -2.3671,0 -1.0082,0 -1.0082,0 -0.9644,1.0082 0,0.3069 0.1315,0.4384 0.4384,0.4384 0.7014,0 1.4027,0 2.1041,0 0.263,0 0.526,-0.0438 0.8329,-0.0438 -0.0439,-0.4822 -0.0439,-0.9206 -0.0439,-1.4028 z m -0.0438,6.663 c -0.789,0 -1.5781,0 -2.3671,0 -0.9644,0 -0.9644,0 -0.9206,1.0083 0,0.3506 0.1315,0.4383 0.4822,0.4383 0.5699,0 1.1398,0 1.7535,0 1.2712,-0.0438 1.2712,-0.0438 1.052,-1.4466 z m 0.0877,-18.5424 c 0,-0.3945 0.0438,-0.7452 0,-1.0959 0,-0.1315 -0.1754,-0.3069 -0.3069,-0.3069 -0.9205,-0.0438 -1.8411,0 -2.7178,0 -0.0876,0 -0.263,0.1754 -0.3068,0.2631 -0.0439,0.3506 0,0.7013 0,1.0958 1.0959,0.0439 2.1479,0.0439 3.3315,0.0439 z m -0.0439,25.2493 c -0.0876,0 -0.1753,-0.0438 -0.2191,-0.0438 -0.7452,0 -1.4466,0 -2.1918,0 -0.9644,0 -1.0959,0.1753 -0.9206,1.0958 0.0439,0.0877 0.1315,0.2631 0.2192,0.2631 1.0082,0 2.0603,0 3.1123,0 0,-0.4822 0,-0.8767 0,-1.3151 z M 19.674,12.0904 c 0,-0.4383 -0.3069,-0.7452 -0.7452,-0.7452 -0.4384,0 -0.7891,0.3507 -0.7452,0.7452 0,0.3945 0.3506,0.7452 0.7452,0.7452 0.3945,0.0439 0.7452,-0.3507 0.7452,-0.7452 z m 4.0328,4.1206 c -0.4383,0 -0.8767,-0.0439 -1.315,0 -0.0877,0 -0.263,0.3068 -0.263,0.4383 0,0.1754 0.1315,0.4822 0.263,0.4822 0.4383,0.0438 0.8767,0.0438 1.315,0.0438 0,-0.3506 0,-0.6575 0,-0.9643 z m 0,6.6191 c -0.4821,0 -0.9205,-0.0438 -1.315,0 -0.1315,0 -0.263,0.2631 -0.263,0.4384 0,0.1753 0.1315,0.4822 0.2191,0.4822 0.4384,0.0438 0.8768,0.0438 1.3151,0.0438 0.0438,-0.3507 0.0438,-0.6137 0.0438,-0.9644 z m 0,6.6192 c -0.4383,0 -0.8328,-0.0438 -1.2273,0 -0.1316,0 -0.3069,0.2192 -0.3507,0.3507 -0.0877,0.4384 0.0876,0.6575 0.5698,0.6137 0.3069,-0.0438 0.6576,0 1.0082,0 0,-0.3068 0,-0.5699 0,-0.9644 z m 0.0439,7.6274 c 0,-0.263 0.0438,-0.4822 0,-0.6575 -0.0439,-0.1315 -0.1315,-0.263 -0.263,-0.3069 -0.3507,-0.0438 -0.7452,-0.0438 -1.0959,0 -0.1315,0.0439 -0.263,0.3069 -0.263,0.4822 0,0.1315 0.1315,0.4384 0.263,0.4384 0.4383,0.0438 0.8767,0.0438 1.3589,0.0438 z"
       fill="#783f34"
       id="path16-6" />
    <path
       d="m 33.3945,32.2986 c 0.0877,0.0439 0.2192,0.1315 0.3069,0.1754 1.8849,0.8329 4.0767,-0.1315 4.8657,-2.1041 0.1315,-0.3069 0.263,-0.4384 0.5699,-0.4822 2.5425,-0.3507 3.8137,-2.8055 2.5863,-5.1288 C 41.6356,24.5836 41.5918,24.2767 41.6795,24.1014 43.2137,20.2 40.7589,16.211 36.5945,15.8603 36.2,15.8164 36.0247,15.7288 35.8931,15.3342 c -0.7452,-2.4986 -3.1999,-3.989 -5.7424,-3.4191 -1.0521,0.2191 -1.9288,0.7452 -2.5425,1.6657 1.5343,-1.0959 3.1562,-1.4027 4.8658,-0.4822 1.7534,0.9206 2.2356,2.5425 2.0602,4.4713 2.1042,-0.3946 3.8576,0.0876 5.0411,1.8849 1.1836,1.7973 0.8329,3.5945 -0.263,5.2603 1.1836,1.2712 1.4028,1.7534 1.0959,2.5863 -0.526,1.315 -1.6219,1.4465 -2.8055,1.2712 0.3069,2.6301 -1.7095,4.2082 -4.2082,3.726 z M 29.8,21.5589 c -0.2192,7.3206 -0.4384,14.7288 -0.6575,22.137 0.7452,0 1.4904,0 2.2356,0 0,-0.2192 0,-0.4384 0,-0.6137 -0.1315,-3.8137 -0.263,-7.6274 -0.4384,-11.4411 -0.0438,-1.1397 0.1315,-2.1041 0.8767,-3.0247 0.7014,-0.8767 1.2713,-1.8411 1.885,-2.8054 0.2191,-0.3507 0.4822,-0.7014 0.7013,-1.0521 -0.0438,0 -0.0438,-0.0438 -0.0876,-0.0438 -1.1398,1.1835 -2.2356,2.3671 -3.463,3.6383 C 30.5014,25.9863 30.1507,23.7507 29.8,21.5589 Z"
       fill="#783f34"
       id="path18-7" />
    <path
       d="m 33.3945,32.2986 c 2.4987,0.4822 4.4713,-1.0959 4.2959,-3.726 1.1836,0.1753 2.3233,0.0438 2.8055,-1.2712 0.3068,-0.8329 0.0877,-1.3151 -1.0959,-2.5863 1.0959,-1.6658 1.4466,-3.463 0.263,-5.2603 -1.1835,-1.7973 -2.8931,-2.2795 -5.0411,-1.8849 0.1754,-1.9288 -0.3068,-3.5507 -2.0603,-4.4713 -1.7095,-0.9205 -3.3315,-0.6137 -4.8657,0.4822 0.6137,-0.9205 1.4904,-1.4466 2.5425,-1.6657 2.5424,-0.5261 4.9534,0.9205 5.7424,3.4191 0.1315,0.3946 0.3069,0.4822 0.7014,0.5261 4.1644,0.3068 6.6192,4.3397 5.0849,8.2411 -0.0876,0.1753 -0.0438,0.4822 0.0439,0.6575 1.2274,2.2795 -0.0439,4.7781 -2.5863,5.1288 -0.3507,0.0438 -0.4384,0.2191 -0.5699,0.4822 -0.8329,1.9726 -3.0247,2.937 -4.8658,2.1041 -0.1753,-0.0439 -0.263,-0.0877 -0.3945,-0.1754 z"
       fill="#783f34"
       id="path20" />
    <path
       d="m 29.8,21.5589 c 0.3507,2.1918 0.7014,4.4274 1.0521,6.8384 1.2274,-1.2713 2.3232,-2.4548 3.463,-3.6384 0.0438,0 0.0438,0.0438 0.0876,0.0438 -0.2191,0.3507 -0.4822,0.7014 -0.7013,1.0521 -0.6137,0.9205 -1.1836,1.9288 -1.885,2.8055 -0.7452,0.9205 -0.9205,1.8849 -0.8767,3.0246 0.1754,3.8137 0.3069,7.6274 0.4384,11.4411 0,0.1754 0,0.3945 0,0.6137 -0.7452,0 -1.4466,0 -2.2356,0 0.2191,-7.452 0.4383,-14.8602 0.6575,-22.1808 z"
       fill="#783f34"
       id="path22" />
  </g>
</svg>
